<svg width="25" height="24" viewBox="0 0 25 24" fill="none" xmlns="http://www.w3.org/2000/svg">
<path fill-rule="evenodd" clip-rule="evenodd" d="M12.0761 1.45076C12.3104 1.21645 12.6903 1.21645 12.9246 1.45076L17.4246 5.95076C17.6589 6.18507 17.6589 6.56497 17.4246 6.79929C17.1903 7.0336 16.8104 7.0336 16.5761 6.79929L13.1001 3.32336V13.125C13.1001 13.4564 12.8315 13.725 12.5001 13.725C12.1688 13.725 11.9001 13.4564 11.9001 13.125V3.32375L8.42461 6.79929C8.19029 7.0336 7.81039 7.0336 7.57608 6.79929C7.34176 6.56497 7.34176 6.18507 7.57608 5.95076L12.0761 1.45076ZM4.62515 11.35C4.3352 11.35 4.10015 11.5851 4.10015 11.875V21C4.10015 21.29 4.3352 21.525 4.62515 21.525H20.3751C20.6651 21.525 20.9001 21.29 20.9001 21V11.875C20.9001 11.5851 20.6651 11.35 20.3751 11.35H18.1251C17.7938 11.35 17.5251 11.0814 17.5251 10.75C17.5251 10.4187 17.7938 10.15 18.1251 10.15H20.3751C21.3278 10.15 22.1001 10.9223 22.1001 11.875V21C22.1001 21.9527 21.3278 22.725 20.3751 22.725H4.62515C3.67246 22.725 2.90015 21.9527 2.90015 21V11.875C2.90015 10.9223 3.67246 10.15 4.62515 10.15H6.87515C7.20652 10.15 7.47515 10.4187 7.47515 10.75C7.47515 11.0814 7.20652 11.35 6.87515 11.35H4.62515Z" fill="#101010"/>
</svg>
